<svg width="24" height="24" viewBox="0 0 24 24" fill="none" xmlns="http://www.w3.org/2000/svg">
<path fill-rule="evenodd" clip-rule="evenodd" d="M12 21.6C17.302 21.6 21.6 17.302 21.6 12C21.6 6.69809 17.302 2.40002 12 2.40002C6.69809 2.40002 2.40002 6.69809 2.40002 12C2.40002 17.302 6.69809 21.6 12 21.6ZM16.4486 10.4486C16.9172 9.97992 16.9172 9.22012 16.4486 8.7515C15.9799 8.28287 15.2201 8.28287 14.7515 8.7515L10.8 12.703L9.24855 11.1515C8.77992 10.6829 8.02012 10.6829 7.5515 11.1515C7.08287 11.6201 7.08287 12.3799 7.5515 12.8486L9.9515 15.2486C10.4201 15.7172 11.1799 15.7172 11.6486 15.2486L16.4486 10.4486Z" fill="#22C55E"/>
</svg>
