<svg width="49" height="48" viewBox="0 0 49 48" fill="none" xmlns="http://www.w3.org/2000/svg">
<path d="M27.5 20.8586C28.582 19.7978 29.9041 18.9811 31.3771 18.4973M31.3771 18.4973C32.3597 18.1746 33.4095 18 34.5 18C40.0228 18 44.5 22.4772 44.5 28C44.5 33.5228 40.0228 38 34.5 38H18.5C10.768 38 4.5 31.732 4.5 24C4.5 16.268 10.768 10 18.5 10C24.2785 10 29.2393 13.5008 31.3771 18.4973Z" stroke="#FF3E2D" stroke-width="4" stroke-linecap="round" stroke-linejoin="round"/>
<path d="M27.5 20.8586C28.582 19.7978 29.9041 18.9811 31.3771 18.4973M31.3771 18.4973C32.3597 18.1746 33.4095 18 34.5 18C40.0228 18 44.5 22.4772 44.5 28C44.5 33.5228 40.0228 38 34.5 38H18.5C10.768 38 4.5 31.732 4.5 24C4.5 16.268 10.768 10 18.5 10C24.2785 10 29.2393 13.5008 31.3771 18.4973Z" stroke="black" stroke-opacity="0.2" stroke-width="4" stroke-linecap="round" stroke-linejoin="round"/>
</svg>
