<svg width="33" height="18" viewBox="0 0 33 18" fill="none" xmlns="http://www.w3.org/2000/svg">
<path d="M10.9475 4.31101C6.45652 3.21371 3.31806 5.82129 1.38758 2.88924C1.3818 2.87743 1.37603 2.87153 1.37025 2.85973C1.31823 2.77715 1.38758 2.65915 1.48006 2.68275C5.4566 3.65028 6.10395 3.04852 7.77433 3.255C9.31753 3.44378 10.9475 4.31101 10.9475 4.31101Z" fill="white"/>
<path d="M11.7394 5.04843C7.78589 4.45259 4.98266 7.46723 2.86723 5.14873C2.86145 5.14283 2.85567 5.13104 2.84411 5.12514C2.78631 5.06024 2.82677 4.94225 2.91346 4.94815C6.52589 5.21952 7.37552 4.57058 8.86102 4.50569C10.2481 4.44669 11.7394 5.04843 11.7394 5.04843Z" fill="white"/>
<path d="M12.4733 5.99828C9.02272 5.52042 7.54314 8.68255 4.74568 6.74752C4.7399 6.74162 4.73412 6.73572 4.72256 6.72392C4.66477 6.67083 4.68211 6.51745 4.76302 6.51745C7.82057 6.52334 8.61818 5.7977 9.90717 5.63842C11.6527 5.42602 12.4733 5.99828 12.4733 5.99828Z" fill="white"/>
<path d="M14.0281 7.04252C12.2248 7.2372 12.5081 8.71208 10.5314 8.38171C10.2713 8.34041 10.3291 8.15162 10.4447 8.11623C12.1035 7.63247 12.1035 7.308 12.6988 7.06611C13.2653 6.84784 14.0281 7.04252 14.0281 7.04252Z" fill="white"/>
<path d="M13.2132 6.58823C10.6122 6.64132 9.94759 8.54686 7.757 7.92741C7.42176 7.83301 7.53736 7.57343 7.71654 7.54984C10.225 7.14278 10.3463 6.76521 11.2769 6.54103C12.1496 6.32865 13.2132 6.58823 13.2132 6.58823Z" fill="white"/>
<path d="M11.7277 4.30514C11.7103 4.33464 11.6699 4.34053 11.641 4.32874C11.1035 4.01606 10.6007 3.65029 10.0228 3.24913C9.47939 2.87746 8.31184 2.3701 5.8843 2.48809C4.72833 2.54709 2.97126 2.78897 1.15638 1.52058C0.717103 1.2197 0.272052 0.706441 0.040857 0.22859C0.0177391 0.187287 0.0061803 0.134189 0.000400825 0.081091C-0.00537865 0.0279928 0.0524157 -0.0132932 0.104447 0.00440082C4.5954 1.84505 5.87852 1.12531 8.70488 1.79195C9.86658 2.06924 11.3058 3.79189 11.722 4.22254C11.7451 4.24025 11.7451 4.27564 11.7277 4.30514Z" fill="white"/>
<path d="M15.635 14.3933C15.5829 14.5584 15.5944 14.7532 15.4905 14.8947C15.3632 15.0836 15.0512 15.1012 14.9009 14.9301C14.8027 14.8417 14.8027 14.7001 14.7679 14.5879C14.5426 13.5792 14.3229 12.5702 14.1033 11.5555C14.0802 11.4848 14.1033 11.4376 14.1726 11.4082C14.2825 11.3786 14.294 11.5025 14.3286 11.5734C14.5772 12.2636 14.8084 12.9596 15.0627 13.6499C15.1436 13.886 15.4154 13.8092 15.5944 13.8683C15.7852 13.992 15.6696 14.2222 15.635 14.3933Z" fill="white"/>
<path d="M15.9297 11.6087C15.9529 11.6736 15.9181 11.7503 15.8488 11.762C15.8084 11.768 15.7737 11.762 15.7621 11.7031C15.5944 11.3609 15.4499 11.0011 15.2766 10.6589C15.0512 10.4641 14.8142 10.2636 14.6756 9.98633C14.427 9.53797 14.4501 8.95392 14.7275 8.52325C14.7506 8.49374 14.7679 8.45836 14.7911 8.42885C14.8316 8.36987 14.9183 8.38167 14.9413 8.45246C14.9587 8.50556 14.9702 8.55864 14.9934 8.60584C15.3055 9.60286 15.6061 10.6117 15.9297 11.6087Z" fill="white"/>
<path d="M15.9759 6.85957C15.9644 7.12505 15.8662 7.37283 15.8025 7.62651C15.7967 7.6442 15.791 7.656 15.7736 7.6619C15.7332 7.67961 15.6928 7.6501 15.6928 7.60882C15.6985 7.26074 15.8199 6.91857 15.7332 6.57639C15.6061 6.11033 15.2939 5.70327 15.2709 5.20771C15.2592 4.94814 15.3228 4.69446 15.3749 4.44078C15.1899 4.04552 15.1032 3.59124 15.2014 3.16059C15.2188 3.10749 15.2246 3.10749 15.2535 3.14878C15.4327 3.41427 15.6696 3.67974 15.6696 4.02781C15.6465 4.52337 15.3806 5.01893 15.5598 5.51449C15.7043 5.95695 16.0164 6.36991 15.9759 6.85957Z" fill="white"/>
<path d="M17.5018 5.14874C17.4903 5.79768 16.9354 6.31684 16.999 6.97759C16.999 7.23127 17.0625 7.49085 17.0336 7.74452C16.9932 7.9687 16.7446 8.0041 16.5656 8.0572C16.4615 8.1044 16.3459 7.98051 16.3748 7.87431C16.3748 7.10738 16.3748 6.33455 16.3748 5.56761C16.3863 5.24904 16.4615 4.91275 16.6753 4.67089C16.8083 4.51159 16.9469 4.35231 17.0914 4.19302C17.1203 4.15762 17.1377 4.11633 17.132 4.07503C17.1203 3.93344 17.0914 3.80955 17.155 3.64436C17.2533 3.43788 17.3805 3.31399 17.5133 3.17831C17.5365 3.15471 17.5711 3.16651 17.577 3.196C17.6695 3.61487 17.577 4.06913 17.3862 4.4467C17.4325 4.67089 17.5018 4.90686 17.5018 5.14874Z" fill="white"/>
<path d="M24.8018 2.77717C24.0157 3.00134 23.6516 3.27271 23.3396 3.52639C23.3396 3.52639 24.0505 3.27271 25.0734 3.16063C27.975 2.83616 28.1425 3.93936 31.3909 2.65917C31.5006 2.64148 31.5295 2.72997 31.5006 2.77717C31.0672 3.5441 30.5874 4.39362 28.7726 4.47031C26.7959 4.55292 25.7671 3.74468 23.9117 3.98656C22.7269 4.13995 22.1142 4.51752 21.7731 4.7476C25.819 3.95706 25.4838 5.77411 29.4487 4.8066C29.495 4.79479 29.5471 4.78299 29.5934 4.78889C29.6973 4.80068 29.7379 4.93049 29.6742 5.00128C29.6453 5.03667 29.6049 5.07207 29.576 5.10746C29.0559 5.67971 28.5067 6.30506 26.6571 6.16348C24.4839 5.99828 24.3453 4.62371 20.1953 5.67381C24.218 5.65612 24.1487 7.0012 27.1774 6.60004C27.2814 6.58825 27.3449 6.71804 27.2641 6.78883C27.2178 6.83011 27.1657 6.86552 27.1253 6.90092C26.6688 7.26668 26.004 7.71504 24.7555 7.45546C22.1546 6.90092 22.4842 5.8036 19.1376 6.40536C21.7442 6.47615 21.5651 7.50856 24.2412 7.76224C24.2412 7.76224 24.2412 7.76224 24.2469 7.76224C24.3914 7.77994 24.432 7.97462 24.3105 8.05722C24.218 8.12212 24.1139 8.1693 24.0157 8.2106C22.0622 8.98343 21.1547 6.48205 18.7561 7.04251C20.4727 7.19589 20.3339 7.78583 21.883 8.2165C22.0505 8.2637 22.0333 8.49379 21.8483 8.51148C20.0104 8.70027 20.1722 7.43777 19.0451 7.39057C18.7446 7.37877 18.4671 7.54397 18.3168 7.81534C17.8718 8.60587 18.0509 9.35511 18.022 9.76218C18.126 10.1869 18.2822 10.6 18.2879 11.0482C18.2937 11.3609 18.2648 11.6854 18.1665 11.9862C17.9815 12.6116 17.7966 13.237 17.6059 13.8683C17.5654 13.998 17.5711 14.1396 17.6174 14.2635C17.6867 14.4523 17.7562 14.6352 17.7851 14.8358C17.8544 15.172 17.8082 15.5201 17.6926 15.8445C17.4499 16.4522 17.207 17.0598 16.9643 17.6734C16.918 17.7854 16.8834 17.9035 16.8024 17.9979C16.6812 18.0215 16.6927 17.8622 16.7042 17.7854C16.9412 15.5141 17.1666 13.2428 17.3978 10.9715L17.5828 10.4288C17.2187 10.7473 17.0568 11.1898 16.8198 11.5851C16.7909 11.6795 16.6523 11.6971 16.6234 11.5911C16.6464 11.1957 16.6984 10.8005 16.7101 10.4052C16.7446 10.004 16.739 9.59699 16.8719 9.21352C17.0221 8.82416 17.3111 8.51148 17.5366 8.17521C17.9064 7.69145 18.1838 7.14279 18.3746 6.56464C18.4902 6.21068 18.733 5.898 19.0451 5.70332C20.1259 5.00718 20.7558 4.40542 21.7789 3.61489C22.721 2.88925 23.4493 2.32289 23.8656 2.15182C25.7671 1.35538 29.5876 2.21081 32.859 0.0397983C32.9398 -0.00740184 33.0439 0.0869826 32.9804 0.222669C32.674 1.01321 32.3099 1.52057 31.4428 1.95713C28.946 3.21373 26.0791 2.41139 24.8018 2.77717Z" fill="white"/>
<path d="M17.2187 4.13994C17.2187 4.13994 17.0047 3.75647 16.4846 3.70927C16.0915 3.67388 15.9125 3.80957 15.9125 3.80957C15.9125 3.80957 16.3863 3.66798 16.7563 4.00425C17.1261 4.34052 16.9239 4.6296 16.9239 4.6296C16.9239 4.6296 17.3284 4.38772 17.2187 4.13994Z" fill="white"/>
<path d="M17.1955 4.0868C17.1955 4.0868 16.9239 3.79184 16.369 3.76823C16.369 3.76823 16.6984 3.85082 16.7389 4.03371C16.8083 4.38179 16.5078 4.84784 16.45 5.07203C16.4037 5.27261 17.1955 4.0868 17.1955 4.0868Z" fill="white"/>
</svg>
