<svg width="36" height="36" viewBox="0 0 36 36" fill="none" xmlns="http://www.w3.org/2000/svg">
<path d="M18 9.375C19.125 9.375 20.1 10.35 20.1 11.475C20.1 12.6 19.125 13.575 18 13.575C16.875 13.575 15.9 12.6 15.9 11.475C15.9 10.35 16.875 9.375 18 9.375ZM24.15 15.3C22.875 15.525 21.525 15.6 20.25 15.675C19.8 15.675 19.5 15.975 19.5 16.275C19.35 20.325 21 25.2 21.075 25.2C21.225 25.575 21 26.025 20.625 26.175C20.55 26.175 20.475 26.25 20.4 26.25C20.1 26.25 19.8 26.025 19.725 25.725C19.65 25.575 19.05 23.55 18.525 20.925C18.375 20.25 17.925 20.325 17.85 20.925C17.4 23.55 16.65 25.575 16.65 25.725C16.35 26.1 16.125 26.25 15.75 26.25C15.675 26.25 15.6 26.25 15.525 26.175C15.15 26.025 14.925 25.575 15.075 25.2C15.075 25.125 16.725 20.325 16.65 16.275C16.65 15.975 16.35 15.75 15.9 15.675C13.575 15.6 12 15.375 11.85 15.375C11.475 15.3 11.175 14.925 11.175 14.55C11.25 14.1 11.625 13.875 12 13.875C12.075 13.875 18.45 14.625 23.925 13.725C24.3 13.65 24.75 13.95 24.75 14.325C24.9 14.85 24.6 15.3 24.15 15.3Z" fill="white"/>
<path d="M18 30.75C10.95 30.75 5.25 25.05 5.25 18C5.25 10.95 10.95 5.25 18 5.25C25.05 5.25 30.75 10.95 30.75 18C30.75 25.05 25.05 30.75 18 30.75ZM18 6.75C11.775 6.75 6.75 11.775 6.75 18C6.75 24.225 11.775 29.25 18 29.25C24.225 29.25 29.25 24.225 29.25 18C29.25 11.775 24.225 6.75 18 6.75Z" fill="white"/>
</svg>
