<svg width="131" height="35" viewBox="0 0 131 35" fill="none" xmlns="http://www.w3.org/2000/svg">
<g opacity="0.75">
<path d="M40.8527 28.6832C40.8527 28.2608 40.9813 27.9286 41.2385 27.6867C41.4993 27.4448 41.7999 27.3238 42.1405 27.3238C42.3325 27.3238 42.5045 27.3545 42.6567 27.4159C42.8088 27.4737 42.9302 27.5531 43.0207 27.6542C43.1149 27.7553 43.1928 27.8708 43.2544 28.0008C43.316 28.1308 43.3486 28.2662 43.3522 28.407C43.3594 28.5442 43.3522 28.6832 43.3305 28.824H41.1624C41.1805 29.1345 41.3 29.3692 41.521 29.5281C41.742 29.6833 42.0119 29.761 42.3306 29.761C42.6567 29.761 42.941 29.6905 43.1837 29.5497V29.853C42.9483 29.9794 42.6494 30.0426 42.2872 30.0426C41.8778 30.0426 41.5355 29.927 41.2602 29.696C40.9885 29.4649 40.8527 29.1273 40.8527 28.6832ZM43.0588 28.5532C43.0841 28.3257 43.0225 28.1109 42.874 27.9087C42.7291 27.7065 42.4918 27.6054 42.1622 27.6054C41.8941 27.6054 41.6641 27.6903 41.4721 27.86C41.2801 28.0261 41.1769 28.2571 41.1624 28.5532H43.0588Z" fill="white"/>
<path d="M45.3305 30.7033H45.0317V29.7068H45.374C45.5406 29.3891 45.662 29.0497 45.7381 28.6886C45.8141 28.3239 45.8504 27.8889 45.8467 27.3834H47.7105V29.7068H48.0909V30.7033H47.7866V29.983H45.3305V30.7033ZM46.1402 27.6596C46.1293 28.4395 45.9844 29.1219 45.7055 29.7068H47.4062V27.6596H46.1402Z" fill="white"/>
<path d="M50.3191 29.983H50.0529V27.3834H50.3626V29.4902L52.1285 27.3834H52.3948V29.983H52.0905V27.8762L50.3191 29.983Z" fill="white"/>
<path d="M54.9101 29.983H54.6004V27.3834H54.9101V28.5424H56.6055V27.3834H56.9098V29.983H56.6055V28.824H54.9101V29.983Z" fill="white"/>
<path d="M61.1647 29.5118C61.1647 29.6635 61.2426 29.7393 61.3983 29.7393C61.4563 29.7393 61.5233 29.7267 61.5994 29.7014V29.9505C61.5016 29.9866 61.4074 30.0047 61.3168 30.0047C61.0415 30.0047 60.8912 29.8711 60.8658 29.6039C60.5942 29.8964 60.2373 30.0426 59.7954 30.0426C59.5454 30.0426 59.3317 29.9776 59.1542 29.8476C58.9767 29.714 58.888 29.5227 58.888 29.2735C58.888 28.9775 59.0002 28.7626 59.2248 28.629C59.4494 28.4918 59.7211 28.4232 60.0399 28.4232C60.3188 28.4232 60.5923 28.4611 60.8604 28.537V28.3637C60.8604 28.1326 60.788 27.9484 60.6431 27.8112C60.4982 27.674 60.2935 27.6054 60.029 27.6054C59.6958 27.6054 59.3842 27.6668 59.0944 27.7896V27.4863C59.4023 27.378 59.7248 27.3238 60.0616 27.3238C60.4094 27.3238 60.6793 27.4177 60.8713 27.6054C61.0669 27.7932 61.1647 28.0586 61.1647 28.4016V29.5118ZM59.2031 29.2573C59.2031 29.427 59.2665 29.557 59.3933 29.6472C59.5201 29.7339 59.674 29.7772 59.8552 29.7772C60.0544 29.7772 60.2428 29.7339 60.4203 29.6472C60.5978 29.557 60.7445 29.4306 60.8604 29.2681V28.7915C60.5851 28.7193 60.3261 28.6832 60.0834 28.6832C59.837 28.6832 59.6288 28.7301 59.4585 28.824C59.2882 28.9143 59.2031 29.0587 59.2031 29.2573Z" fill="white"/>
<path d="M63.5604 29.983H63.1964L63.9734 28.9865C63.7669 28.9359 63.6057 28.8403 63.4898 28.6994C63.3739 28.5586 63.3159 28.3925 63.3159 28.2012C63.3159 27.9665 63.4029 27.7715 63.5767 27.6163C63.7506 27.461 63.9879 27.3834 64.2886 27.3834H65.5329V29.983H65.2232V29.019H64.3049L63.5604 29.983ZM63.805 27.8058C63.6854 27.9033 63.6256 28.0351 63.6256 28.2012C63.6256 28.3673 63.6872 28.4991 63.8104 28.5965C63.9335 28.694 64.102 28.7428 64.3157 28.7428H65.2286V27.6596H64.3157C64.0984 27.6596 63.9281 27.7083 63.805 27.8058Z" fill="white"/>
<path d="M73.0144 28.7644C73.0144 29.1544 72.893 29.4649 72.6503 29.696C72.4076 29.927 72.0888 30.0426 71.694 30.0426C71.2919 30.0426 70.9658 29.9072 70.7159 29.6364C70.4695 29.3656 70.3464 29.0009 70.3464 28.5424C70.3464 28.1308 70.4206 27.7715 70.5692 27.4646C70.7213 27.1541 70.9187 26.923 71.1614 26.7714C71.3679 26.645 71.5817 26.553 71.8026 26.4952C72.0272 26.4374 72.2192 26.3887 72.3786 26.349C72.538 26.3056 72.6684 26.2334 72.7698 26.1323V26.4573C72.6684 26.5367 72.5434 26.5963 72.3949 26.636C72.25 26.6721 72.0816 26.7154 71.8896 26.766C71.7012 26.8165 71.5183 26.8942 71.3408 26.9989C71.0039 27.2047 70.7757 27.5766 70.6561 28.1145C70.7539 27.9232 70.9006 27.7715 71.0962 27.6596C71.2919 27.5477 71.5056 27.4917 71.7374 27.4917C72.0961 27.4917 72.3985 27.6109 72.6449 27.8492C72.8912 28.0838 73.0144 28.3889 73.0144 28.7644ZM70.6561 28.6994C70.6561 29.0027 70.7503 29.2537 70.9387 29.4523C71.1307 29.6508 71.3806 29.7501 71.6885 29.7501C72.0001 29.7501 72.2482 29.6599 72.4329 29.4793C72.6177 29.2952 72.7101 29.0587 72.7101 28.7699C72.7101 28.481 72.6177 28.2445 72.4329 28.0604C72.2482 27.8762 72.0037 27.7842 71.6994 27.7842C71.4241 27.7842 71.1886 27.8708 70.993 28.0441C70.7974 28.2138 70.6851 28.4323 70.6561 28.6994Z" fill="white"/>
<path d="M74.8614 28.6832C74.8614 28.2608 74.99 27.9286 75.2472 27.6867C75.508 27.4448 75.8086 27.3238 76.1492 27.3238C76.3411 27.3238 76.5132 27.3545 76.6654 27.4159C76.8175 27.4737 76.9389 27.5531 77.0294 27.6542C77.1236 27.7553 77.2015 27.8708 77.2631 28.0008C77.3247 28.1308 77.3573 28.2662 77.3609 28.407C77.3681 28.5442 77.3609 28.6832 77.3391 28.824H75.1711C75.1892 29.1345 75.3087 29.3692 75.5297 29.5281C75.7507 29.6833 76.0206 29.761 76.3393 29.761C76.6654 29.761 76.9497 29.6905 77.1924 29.5497V29.853C76.957 29.9794 76.6581 30.0426 76.2959 30.0426C75.8865 30.0426 75.5442 29.927 75.2689 29.696C74.9972 29.4649 74.8614 29.1273 74.8614 28.6832ZM77.0675 28.5532C77.0928 28.3257 77.0312 28.1109 76.8827 27.9087C76.7378 27.7065 76.5005 27.6054 76.1709 27.6054C75.9028 27.6054 75.6728 27.6903 75.4808 27.86C75.2888 28.0261 75.1856 28.2571 75.1711 28.5532H77.0675Z" fill="white"/>
<path d="M81.24 29.2898C81.24 29.5353 81.1368 29.723 80.9303 29.853C80.7238 29.9794 80.4485 30.0426 80.1044 30.0426C79.7421 30.0426 79.427 29.9776 79.1589 29.8476V29.5552C79.4234 29.6924 79.7276 29.761 80.0718 29.761C80.6441 29.761 80.9303 29.5931 80.9303 29.2573C80.9303 29.0984 80.8687 28.9829 80.7456 28.9107C80.6224 28.8385 80.4793 28.8023 80.3163 28.8023H79.7077V28.5207H80.3163C80.6894 28.5027 80.876 28.3619 80.876 28.0983C80.876 27.9358 80.8017 27.813 80.6532 27.73C80.5083 27.647 80.3181 27.6054 80.0826 27.6054C79.7711 27.6054 79.4759 27.6704 79.1969 27.8004V27.5134C79.494 27.3834 79.8001 27.3184 80.1152 27.3184C80.4485 27.3184 80.7093 27.3852 80.8977 27.5188C81.0897 27.6488 81.1857 27.8293 81.1857 28.0604C81.1857 28.2156 81.1404 28.3456 81.0499 28.4503C80.9629 28.5514 80.8416 28.6182 80.6858 28.6507C80.8416 28.6904 80.972 28.7662 81.077 28.8782C81.1857 28.9901 81.24 29.1273 81.24 29.2898Z" fill="white"/>
<path d="M83.5043 29.6797C83.2362 29.4342 83.1022 29.102 83.1022 28.6832C83.1022 28.2644 83.2362 27.934 83.5043 27.6921C83.776 27.4466 84.0984 27.3238 84.4715 27.3238C84.8482 27.3238 85.1706 27.4466 85.4387 27.6921C85.7104 27.934 85.8462 28.2644 85.8462 28.6832C85.8462 29.102 85.7104 29.4342 85.4387 29.6797C85.1706 29.9216 84.8482 30.0426 84.4715 30.0426C84.0984 30.0426 83.776 29.9216 83.5043 29.6797ZM85.2322 29.4631C85.4351 29.2717 85.5365 29.0118 85.5365 28.6832C85.5365 28.3546 85.4351 28.0947 85.2322 27.9033C85.0294 27.712 84.7776 27.6163 84.4769 27.6163C84.1763 27.6163 83.9227 27.712 83.7162 27.9033C83.5133 28.0947 83.4119 28.3546 83.4119 28.6832C83.4119 29.0118 83.5133 29.2717 83.7162 29.4631C83.9227 29.6544 84.1763 29.7501 84.4769 29.7501C84.7776 29.7501 85.0294 29.6544 85.2322 29.4631Z" fill="white"/>
<path d="M88.1813 29.983H87.8715V27.3834H90.1809V29.983H89.8766V27.6704H88.1813V29.983Z" fill="white"/>
<path d="M94.4358 29.5118C94.4358 29.6635 94.5137 29.7393 94.6695 29.7393C94.7274 29.7393 94.7944 29.7267 94.8705 29.7014V29.9505C94.7727 29.9866 94.6785 30.0047 94.588 30.0047C94.3127 30.0047 94.1623 29.8711 94.137 29.6039C93.8653 29.8964 93.5085 30.0426 93.0665 30.0426C92.8166 30.0426 92.6028 29.9776 92.4253 29.8476C92.2478 29.714 92.1591 29.5227 92.1591 29.2735C92.1591 28.9775 92.2714 28.7626 92.496 28.629C92.7206 28.4918 92.9922 28.4232 93.311 28.4232C93.59 28.4232 93.8635 28.4611 94.1315 28.537V28.3637C94.1315 28.1326 94.0591 27.9484 93.9142 27.8112C93.7693 27.674 93.5646 27.6054 93.3002 27.6054C92.9669 27.6054 92.6554 27.6668 92.3656 27.7896V27.4863C92.6735 27.378 92.9959 27.3238 93.3328 27.3238C93.6805 27.3238 93.9504 27.4177 94.1424 27.6054C94.338 27.7932 94.4358 28.0586 94.4358 28.4016V29.5118ZM92.4742 29.2573C92.4742 29.427 92.5376 29.557 92.6644 29.6472C92.7912 29.7339 92.9452 29.7772 93.1263 29.7772C93.3255 29.7772 93.5139 29.7339 93.6914 29.6472C93.8689 29.557 94.0156 29.4306 94.1315 29.2681V28.7915C93.8562 28.7193 93.5972 28.6832 93.3545 28.6832C93.1082 28.6832 92.8999 28.7301 92.7296 28.824C92.5594 28.9143 92.4742 29.0587 92.4742 29.2573Z" fill="white"/>
<path d="M96.5327 28.6994C96.5327 28.3962 96.6033 28.138 96.7446 27.925C96.8895 27.7083 97.0652 27.5549 97.2717 27.4646C97.4782 27.3708 97.7009 27.3238 97.94 27.3238C98.2588 27.3238 98.5214 27.3942 98.7279 27.535V27.8329C98.5251 27.6813 98.2751 27.6054 97.9781 27.6054C97.6665 27.6054 97.3985 27.6975 97.1739 27.8816C96.9529 28.0658 96.8424 28.3366 96.8424 28.694C96.8424 29.037 96.9493 29.3006 97.163 29.4847C97.3804 29.6689 97.6412 29.761 97.9455 29.761C98.2461 29.761 98.516 29.6905 98.7551 29.5497V29.8584C98.5088 29.9812 98.2244 30.0426 97.902 30.0426C97.5325 30.0426 97.2119 29.927 96.9402 29.696C96.6685 29.4649 96.5327 29.1327 96.5327 28.6994Z" fill="white"/>
<path d="M101.086 29.983H100.777V27.3834H101.086V28.5424H102.782V27.3834H103.086V29.983H102.782V28.824H101.086V29.983Z" fill="white"/>
<path d="M107.341 29.5118C107.341 29.6635 107.419 29.7393 107.575 29.7393C107.633 29.7393 107.7 29.7267 107.776 29.7014V29.9505C107.678 29.9866 107.584 30.0047 107.493 30.0047C107.218 30.0047 107.067 29.8711 107.042 29.6039C106.77 29.8964 106.414 30.0426 105.972 30.0426C105.722 30.0426 105.508 29.9776 105.33 29.8476C105.153 29.714 105.064 29.5227 105.064 29.2735C105.064 28.9775 105.177 28.7626 105.401 28.629C105.626 28.4918 105.897 28.4232 106.216 28.4232C106.495 28.4232 106.769 28.4611 107.037 28.537V28.3637C107.037 28.1326 106.964 27.9484 106.819 27.8112C106.674 27.674 106.47 27.6054 106.205 27.6054C105.872 27.6054 105.561 27.6668 105.271 27.7896V27.4863C105.579 27.378 105.901 27.3238 106.238 27.3238C106.586 27.3238 106.856 27.4177 107.048 27.6054C107.243 27.7932 107.341 28.0586 107.341 28.4016V29.5118ZM105.379 29.2573C105.379 29.427 105.443 29.557 105.57 29.6472C105.696 29.7339 105.85 29.7772 106.031 29.7772C106.231 29.7772 106.419 29.7339 106.597 29.6472C106.774 29.557 106.921 29.4306 107.037 29.2681V28.7915C106.761 28.7193 106.502 28.6832 106.26 28.6832C106.013 28.6832 105.805 28.7301 105.635 28.824C105.465 28.9143 105.379 29.0587 105.379 29.2573Z" fill="white"/>
<path d="M109.737 29.983H109.373L110.15 28.9865C109.943 28.9359 109.782 28.8403 109.666 28.6994C109.55 28.5586 109.492 28.3925 109.492 28.2012C109.492 27.9665 109.579 27.7715 109.753 27.6163C109.927 27.461 110.164 27.3834 110.465 27.3834H111.709V29.983H111.399V29.019H110.481L109.737 29.983ZM109.981 27.8058C109.862 27.9033 109.802 28.0351 109.802 28.2012C109.802 28.3673 109.863 28.4991 109.987 28.5965C110.11 28.694 110.278 28.7428 110.492 28.7428H111.405V27.6596H110.492C110.275 27.6596 110.104 27.7083 109.981 27.8058Z" fill="white"/>
<path d="M116.49 28.6994C116.49 28.3962 116.561 28.138 116.702 27.925C116.847 27.7083 117.023 27.5549 117.229 27.4646C117.436 27.3708 117.658 27.3238 117.897 27.3238C118.216 27.3238 118.479 27.3942 118.685 27.535V27.8329C118.482 27.6813 118.232 27.6054 117.935 27.6054C117.624 27.6054 117.356 27.6975 117.131 27.8816C116.91 28.0658 116.8 28.3366 116.8 28.694C116.8 29.037 116.907 29.3006 117.12 29.4847C117.338 29.6689 117.599 29.761 117.903 29.761C118.203 29.761 118.473 29.6905 118.712 29.5497V29.8584C118.466 29.9812 118.182 30.0426 117.859 30.0426C117.49 30.0426 117.169 29.927 116.898 29.696C116.626 29.4649 116.49 29.1327 116.49 28.6994Z" fill="white"/>
<path d="M120.496 28.6832C120.496 28.2608 120.625 27.9286 120.882 27.6867C121.143 27.4448 121.444 27.3238 121.784 27.3238C121.976 27.3238 122.148 27.3545 122.3 27.4159C122.453 27.4737 122.574 27.5531 122.664 27.6542C122.759 27.7553 122.837 27.8708 122.898 28.0008C122.96 28.1308 122.992 28.2662 122.996 28.407C123.003 28.5442 122.996 28.6832 122.974 28.824H120.806C120.824 29.1345 120.944 29.3692 121.165 29.5281C121.386 29.6833 121.656 29.761 121.974 29.761C122.3 29.761 122.585 29.6905 122.827 29.5497V29.853C122.592 29.9794 122.293 30.0426 121.931 30.0426C121.522 30.0426 121.179 29.927 120.904 29.696C120.632 29.4649 120.496 29.1273 120.496 28.6832ZM122.702 28.5532C122.728 28.3257 122.666 28.1109 122.518 27.9087C122.373 27.7065 122.136 27.6054 121.806 27.6054C121.538 27.6054 121.308 27.6903 121.116 27.86C120.924 28.0261 120.821 28.2571 120.806 28.5532H122.702Z" fill="white"/>
<path d="M125.931 29.983H125.621V27.6704H124.61V27.3834H126.942V27.6704H125.931V29.983Z" fill="white"/>
<path d="M130.006 29.983H128.81V27.3834H129.12V28.3312H130.006C130.306 28.3312 130.547 28.4088 130.729 28.564C130.91 28.7193 131 28.9161 131 29.1544C131 29.3963 130.91 29.5949 130.729 29.7501C130.547 29.9054 130.306 29.983 130.006 29.983ZM129.115 28.6074V29.7068H129.962C130.187 29.7068 130.363 29.6581 130.489 29.5606C130.62 29.4631 130.685 29.3277 130.685 29.1544C130.685 28.9811 130.62 28.8475 130.489 28.7536C130.359 28.6561 130.183 28.6074 129.962 28.6074H129.115Z" fill="white"/>
</g>
<path d="M41.4275 17.7512C41.0443 16.6884 40.8527 15.5675 40.8527 14.3885C40.8527 13.2094 41.0443 12.0885 41.4275 11.0257C41.8273 9.96291 42.3938 9.00805 43.1269 8.16113C43.86 7.29761 44.8263 6.61675 46.0259 6.11856C47.2255 5.60377 48.5667 5.34637 50.0496 5.34637C51.5324 5.34637 52.8653 5.60377 54.0482 6.11856C55.2478 6.61675 56.2142 7.29761 56.9473 8.16113C57.697 9.00805 58.2635 9.96291 58.6467 11.0257C59.0466 12.0885 59.2465 13.2094 59.2465 14.3885C59.2465 15.5675 59.0466 16.6884 58.6467 17.7512C58.2635 18.814 57.697 19.7772 56.9473 20.6407C56.2142 21.4876 55.2478 22.1685 54.0482 22.6833C52.8653 23.1815 51.5324 23.4306 50.0496 23.4306C48.5667 23.4306 47.2255 23.1815 46.0259 22.6833C44.8263 22.1685 43.86 21.4876 43.1269 20.6407C42.3938 19.7772 41.8273 18.814 41.4275 17.7512ZM54.698 18.922C55.7976 17.6931 56.3475 16.1819 56.3475 14.3885C56.3475 12.595 55.7976 11.0838 54.698 9.85497C53.615 8.62611 52.0656 8.01168 50.0496 8.01168C48.0502 8.01168 46.5008 8.62611 45.4011 9.85497C44.3015 11.0838 43.7517 12.595 43.7517 14.3885C43.7517 16.1819 44.3015 17.6931 45.4011 18.922C46.5008 20.1508 48.0502 20.7653 50.0496 20.7653C52.0656 20.7653 53.615 20.1508 54.698 18.922Z" fill="white"/>
<path d="M64.1829 12.7943C65.2825 11.4824 66.6737 10.8264 68.3565 10.8264C69.856 10.8264 71.0556 11.2831 71.9553 12.1964C72.855 13.0932 73.3048 14.2639 73.3048 15.7087V23.1067H70.6307V16.0574C70.6307 15.1274 70.3725 14.4217 69.856 13.9401C69.3395 13.4419 68.6647 13.1928 67.8317 13.1928C66.5155 13.1928 65.3992 13.8571 64.4828 15.1856V23.1067H61.8087V11.1503H64.1829V12.7943Z" fill="white"/>
<path d="M75.7513 17.1285C75.7513 16.0989 75.9346 15.169 76.3011 14.3386C76.6677 13.4917 77.1508 12.8275 77.7506 12.3459C78.3504 11.8477 79.0002 11.4741 79.7 11.225C80.3997 10.9593 81.1078 10.8264 81.8243 10.8264C82.7406 10.8264 83.5653 10.9676 84.2984 11.2499C85.0482 11.5322 85.648 11.9141 86.0978 12.3957C86.5477 12.8773 86.9142 13.4336 87.1974 14.0646C87.4807 14.6957 87.6306 15.3599 87.6473 16.0574C87.664 16.7382 87.6056 17.4274 87.4724 18.1249H78.4504C78.5837 19.1378 79.0835 19.9017 79.9499 20.4165C80.8163 20.9147 81.8492 21.1638 83.0488 21.1638C84.4151 21.1638 85.6813 20.8815 86.8476 20.3169V22.6085C85.698 23.1566 84.2651 23.4306 82.549 23.4306C80.5997 23.4306 78.9752 22.8826 77.6756 21.7865C76.3927 20.6905 75.7513 19.1378 75.7513 17.1285ZM85.0732 16.1321C85.1731 15.4513 84.9649 14.7704 84.4484 14.0896C83.9485 13.3921 83.1155 13.0434 81.9492 13.0434C80.9995 13.0434 80.1831 13.3174 79.5 13.8654C78.8336 14.4134 78.4754 15.169 78.4254 16.1321H85.0732Z" fill="white"/>
<path d="M93.4916 23.1067H90.6426V5.6702H93.3167L102.739 18.4238C102.722 18.0252 102.714 17.3859 102.714 16.5058V5.6702H105.563V23.1067H102.888L93.4666 10.3532C93.4833 10.7517 93.4916 11.3827 93.4916 12.2463V23.1067Z" fill="white"/>
<path d="M108.309 17.1285C108.309 16.0989 108.492 15.169 108.859 14.3386C109.225 13.4917 109.708 12.8275 110.308 12.3459C110.908 11.8477 111.558 11.4741 112.257 11.225C112.957 10.9593 113.665 10.8264 114.382 10.8264C115.298 10.8264 116.123 10.9676 116.856 11.2499C117.606 11.5322 118.205 11.9141 118.655 12.3957C119.105 12.8773 119.472 13.4336 119.755 14.0646C120.038 14.6957 120.188 15.3599 120.205 16.0574C120.221 16.7382 120.163 17.4274 120.03 18.1249H111.008C111.141 19.1378 111.641 19.9017 112.507 20.4165C113.374 20.9147 114.407 21.1638 115.606 21.1638C116.972 21.1638 118.239 20.8815 119.405 20.3169V22.6085C118.255 23.1566 116.823 23.4306 115.106 23.4306C113.157 23.4306 111.533 22.8826 110.233 21.7865C108.95 20.6905 108.309 19.1378 108.309 17.1285ZM117.631 16.1321C117.731 15.4513 117.522 14.7704 117.006 14.0896C116.506 13.3921 115.673 13.0434 114.507 13.0434C113.557 13.0434 112.741 13.3174 112.057 13.8654C111.391 14.4134 111.033 15.169 110.983 16.1321H117.631Z" fill="white"/>
<path d="M123.625 7.5384L126.274 6.89075V11.1503H130.623V13.4917H126.274V18.9718C126.274 19.7357 126.449 20.2754 126.799 20.5909C127.165 20.9064 127.748 21.0642 128.548 21.0642C129.365 21.0642 130.173 20.9064 130.972 20.5909V22.8826C130.006 23.2313 128.931 23.4056 127.748 23.4056C126.516 23.4056 125.516 23.0818 124.749 22.4342C124 21.7865 123.625 20.7985 123.625 19.47V13.4917H121.476V11.1503H123.625V7.5384Z" fill="white"/>
<ellipse cx="17.1268" cy="33.9801" rx="1.02331" ry="1.01994" fill="#FF3E2D"/>
<path fill-rule="evenodd" clip-rule="evenodd" d="M13.4643 30.7056C13.0785 30.7056 12.7656 31.0097 12.5032 31.2926C12.2868 31.5258 11.9771 31.6719 11.6331 31.6719C10.9787 31.6719 10.4482 31.1431 10.4482 30.4909C10.4482 29.8386 10.9787 29.3099 11.6331 29.3099C11.977 29.3099 12.2867 29.4559 12.5032 29.6892C12.7656 29.972 13.0785 30.2761 13.4643 30.2761C13.8502 30.2761 14.1631 29.972 14.4255 29.6892C14.642 29.456 14.9517 29.3099 15.2955 29.3099C15.6394 29.3099 15.9491 29.4559 16.1655 29.6892C16.428 29.972 16.741 30.2761 17.1268 30.2761C17.5126 30.2761 17.8255 29.972 18.088 29.6892C18.3045 29.4559 18.6141 29.3099 18.958 29.3099C19.302 29.3099 19.6117 29.456 19.8281 29.6893C20.0905 29.9721 20.4033 30.2761 20.789 30.2761C21.1748 30.2761 21.4876 29.9721 21.7499 29.6893C21.9664 29.456 22.2761 29.3099 22.6201 29.3099C23.2745 29.3099 23.805 29.8387 23.805 30.4909C23.805 31.1432 23.2745 31.6719 22.6201 31.6719C22.2761 31.6719 21.9663 31.5258 21.7499 31.2924C21.4876 31.0097 21.1747 30.7056 20.789 30.7056C20.4034 30.7056 20.0905 31.0097 19.8282 31.2924C19.6118 31.5258 19.302 31.6719 18.958 31.6719C18.6141 31.6719 18.3044 31.5258 18.0879 31.2926C17.8255 31.0098 17.5126 30.7056 17.1268 30.7056C16.741 30.7056 16.4281 31.0098 16.1656 31.2926C15.9492 31.5258 15.6395 31.6719 15.2955 31.6719C14.9516 31.6719 14.6419 31.5258 14.4255 31.2926C14.163 31.0098 13.8501 30.7056 13.4643 30.7056Z" fill="#FF3E2D"/>
<path fill-rule="evenodd" clip-rule="evenodd" d="M9.88313 26.8945C9.26802 26.8945 8.76661 27.4205 8.26414 27.7753C8.04453 27.9304 7.77627 28.0215 7.48665 28.0215C6.74303 28.0215 6.1402 27.4207 6.1402 26.6795C6.1402 25.9383 6.74303 25.3375 7.48665 25.3375C7.77646 25.3375 8.04487 25.4287 8.26456 25.584C8.76687 25.939 9.26823 26.4651 9.88332 26.465C10.4983 26.465 10.9996 25.939 11.5018 25.584C11.7215 25.4288 11.99 25.3375 12.2798 25.3375C12.5694 25.3375 12.8377 25.4286 13.0573 25.5837C13.5599 25.9386 14.0614 26.4649 14.6767 26.4648C15.2919 26.4648 15.7934 25.9386 16.2959 25.5838C16.5155 25.4287 16.7838 25.3375 17.0735 25.3375C17.3631 25.3375 17.6314 25.4286 17.851 25.5837C18.3535 25.9386 18.855 26.4647 19.4701 26.4646C20.0852 26.4646 20.5866 25.9386 21.0891 25.5838C21.3087 25.4287 21.577 25.3375 21.8666 25.3375C22.1561 25.3375 22.4242 25.4285 22.6437 25.5834C23.1465 25.9382 23.6482 26.4645 24.2635 26.4644C24.8788 26.4644 25.3804 25.9383 25.8831 25.5835C26.1026 25.4286 26.3708 25.3375 26.6603 25.3375C27.4039 25.3375 28.0067 25.9383 28.0067 26.6795C28.0067 27.4207 27.4039 28.0215 26.6603 28.0215C26.3705 28.0215 26.1021 27.9303 25.8825 27.7751C25.38 27.4201 24.8786 26.8939 24.2634 26.8939C23.6482 26.8939 23.1469 27.4201 22.6445 27.7751C22.4248 27.9303 22.1564 28.0215 21.8666 28.0215C21.5769 28.0215 21.3085 27.9303 21.0888 27.7751C20.5865 27.4202 20.0851 26.8941 19.47 26.8941C18.8549 26.8941 18.3536 27.4201 17.8513 27.7751C17.6317 27.9303 17.3633 28.0215 17.0735 28.0215C16.7839 28.0215 16.5157 27.9304 16.2961 27.7754C15.7934 27.4205 15.2918 26.8943 14.6765 26.8943C14.0613 26.8943 13.5598 27.4205 13.0573 27.7754C12.8377 27.9304 12.5694 28.0215 12.2798 28.0215C11.9902 28.0215 11.722 27.9304 11.5024 27.7754C10.9998 27.4206 10.4983 26.8945 9.88313 26.8945Z" fill="#FF3E2D"/>
<path fill-rule="evenodd" clip-rule="evenodd" d="M22.1082 22.8144C21.4955 22.8144 21.0002 23.3319 20.5261 23.7201C20.2751 23.9256 19.9539 24.049 19.6037 24.049C19.2534 24.049 18.932 23.9256 18.681 23.7199C18.2071 23.3318 17.7119 22.8144 17.0994 22.8144C16.4868 22.8144 15.9916 23.3318 15.5178 23.7199C15.2667 23.9256 14.9454 24.049 14.5951 24.049C14.2448 24.049 13.9235 23.9256 13.6724 23.7199C13.1986 23.3318 12.7034 22.8144 12.0908 22.8144C11.4783 22.8144 10.9831 23.3318 10.5092 23.7199C10.2582 23.9256 9.93681 24.049 9.58653 24.049C9.23633 24.049 8.91504 23.9256 8.66403 23.7201C8.19 23.3319 7.6947 22.8144 7.08202 22.8144C6.46929 22.8144 5.97398 23.332 5.49992 23.7202C5.24891 23.9257 4.92762 24.0491 4.5774 24.0491C3.77429 24.0491 3.12323 23.4002 3.12323 22.5997C3.12323 21.7993 3.77429 21.1503 4.5774 21.1503C4.92759 21.1503 5.24886 21.2737 5.49985 21.4792C5.97391 21.8674 6.46922 22.3849 7.08192 22.3849C7.69465 22.3849 8.18998 21.8673 8.66406 21.4791C8.91506 21.2736 9.23634 21.1502 9.58653 21.1502C9.93684 21.1502 10.2582 21.2737 10.5093 21.4793C10.9831 21.8675 11.4783 22.3849 12.0908 22.3849C12.7034 22.3849 13.1985 21.8675 13.6724 21.4793C13.9234 21.2737 14.2448 21.1502 14.5951 21.1502C14.9454 21.1502 15.2668 21.2737 15.5178 21.4793C15.9917 21.8675 16.4868 22.3849 17.0994 22.3849C17.7119 22.3849 18.2071 21.8675 18.681 21.4793C18.932 21.2737 19.2534 21.1502 19.6037 21.1502C19.9539 21.1502 20.2752 21.2736 20.5262 21.4792C21.0002 21.8674 21.4955 22.3849 22.1082 22.3849C22.7209 22.3849 23.2162 21.8674 23.6903 21.4792C23.9413 21.2736 24.2626 21.1502 24.6128 21.1502C24.963 21.1502 25.2843 21.2736 25.5353 21.4792C26.0093 21.8674 26.5046 22.3849 27.1173 22.3849C27.73 22.3849 28.2253 21.8674 28.6993 21.4792C28.9503 21.2736 29.2716 21.1502 29.6218 21.1502C30.4249 21.1502 31.076 21.7992 31.076 22.5996C31.076 23.4001 30.4249 24.049 29.6218 24.049C29.2716 24.049 28.9503 23.9256 28.6993 23.7201C28.2253 23.3319 27.73 22.8144 27.1173 22.8144C26.5046 22.8144 26.0093 23.3319 25.5353 23.7201C25.2843 23.9256 24.963 24.049 24.6128 24.049C24.2626 24.049 23.9413 23.9256 23.6903 23.7201C23.2162 23.3319 22.7209 22.8144 22.1082 22.8144Z" fill="#FF3E2D"/>
<path fill-rule="evenodd" clip-rule="evenodd" d="M6.43637 18.4663C5.3336 18.4663 4.36821 19.5515 3.29741 19.8151C3.17289 19.8458 3.04268 19.8621 2.90866 19.8621C2.0163 19.8621 1.29291 19.1411 1.29291 18.2516C1.29291 17.3622 2.0163 16.6412 2.90866 16.6412C3.04261 16.6412 3.17276 16.6575 3.29722 16.6881C4.36815 16.9516 5.33366 18.0369 6.43653 18.0369C7.53934 18.0369 8.50479 16.9517 9.57566 16.6882C9.70013 16.6576 9.83029 16.6413 9.96425 16.6413C10.0983 16.6413 10.2285 16.6576 10.353 16.6882C11.4238 16.9519 12.3891 18.0369 13.4918 18.0369C14.5945 18.0369 15.5598 16.9519 16.6305 16.6882C16.7551 16.6576 16.8853 16.6413 17.0193 16.6413C17.1533 16.6413 17.2834 16.6576 17.4079 16.6882C18.4788 16.9517 19.4442 18.0369 20.547 18.0369C21.6499 18.0369 22.6153 16.9517 23.6862 16.6882C23.8107 16.6576 23.9408 16.6413 24.0748 16.6413C24.2086 16.6413 24.3386 16.6575 24.4629 16.6881C25.5341 16.9514 26.4999 18.0369 27.6029 18.0369C28.706 18.0369 29.6718 16.9514 30.743 16.6881C30.8673 16.6575 30.9973 16.6413 31.1311 16.6413C32.0235 16.6413 32.7469 17.3623 32.7469 18.2518C32.7469 19.1412 32.0235 19.8622 31.1311 19.8622C30.9972 19.8622 30.8671 19.8459 30.7427 19.8153C29.6716 19.5519 28.7059 18.4663 27.6029 18.4663C26.4999 18.4663 25.5343 19.5519 24.4632 19.8153C24.3388 19.8459 24.2087 19.8622 24.0748 19.8622C23.9407 19.8622 23.8105 19.8459 23.6859 19.8152C22.6151 19.5515 21.6498 18.4663 20.547 18.4663C19.4443 18.4663 18.4789 19.5515 17.4082 19.8152C17.2836 19.8459 17.1534 19.8622 17.0193 19.8622C16.8852 19.8622 16.7549 19.8459 16.6302 19.8152C15.5596 19.5514 14.5944 18.4663 13.4918 18.4663C12.3891 18.4663 11.4239 19.5514 10.3533 19.8152C10.2287 19.8459 10.0984 19.8622 9.96425 19.8622C9.83024 19.8622 9.70004 19.8459 9.57552 19.8153C8.50465 19.5517 7.53921 18.4663 6.43637 18.4663Z" fill="#FF3E2D"/>
<path fill-rule="evenodd" clip-rule="evenodd" d="M6.68393 13.7425C5.16908 13.7425 3.72365 15.3527 2.20881 15.3527C1.19747 15.3527 0.377625 14.5356 0.377625 13.5276C0.377625 12.5196 1.19747 11.7024 2.20881 11.7024C3.72376 11.7024 5.1693 13.313 6.68425 13.313H7.64333C9.15826 13.313 10.6038 11.7025 12.1187 11.7025C13.6337 11.7025 15.0792 13.313 16.5941 13.313H17.5537C19.0686 13.313 20.5141 11.7025 22.0291 11.7025C22.056 11.7025 22.0829 11.7031 22.1095 11.7042C22.1362 11.7031 22.163 11.7025 22.19 11.7025C23.7049 11.7025 25.1504 13.313 26.6654 13.313H27.4632C28.9782 13.313 30.4237 11.7025 31.9386 11.7025C32.95 11.7025 33.7698 12.5196 33.7698 13.5276C33.7698 14.5356 32.95 15.3528 31.9386 15.3528C30.4238 15.3528 28.9783 13.7425 27.4634 13.7425H26.6652C25.1503 13.7425 23.7049 15.3528 22.19 15.3528C22.163 15.3528 22.1362 15.3522 22.1095 15.3511C22.0829 15.3522 22.056 15.3528 22.0291 15.3528C20.5142 15.3528 19.0688 13.7425 17.5539 13.7425H16.5939C15.079 13.7425 13.6336 15.3528 12.1187 15.3528C10.6039 15.3528 9.15841 13.7425 7.64355 13.7425H6.68393Z" fill="#FF3E2D"/>
<path fill-rule="evenodd" clip-rule="evenodd" d="M26.0435 6.66153C26.7231 7.26366 27.4482 8.05223 28.3562 8.05223C29.2642 8.05223 29.9892 7.26366 30.6689 6.66153C31.0494 6.32446 31.5505 6.11972 32.0996 6.11972C33.2894 6.11972 34.2539 7.08107 34.2539 8.26696C34.2539 9.45285 33.2894 10.4142 32.0996 10.4142C31.5505 10.4142 31.0494 10.2095 30.6689 9.87238C29.9892 9.27024 29.2642 8.48168 28.3562 8.48168C27.4482 8.48168 26.7232 9.27024 26.0435 9.87238C25.663 10.2095 25.1619 10.4142 24.6128 10.4142C24.0636 10.4142 23.5623 10.2093 23.1818 9.87207C22.5025 9.26996 21.7777 8.48168 20.8699 8.48168C19.9621 8.48168 19.2373 9.26996 18.558 9.87207C18.1775 10.2093 17.6762 10.4142 17.127 10.4142C16.5778 10.4142 16.0767 10.2094 15.6962 9.87225C15.0166 9.27012 14.2917 8.48168 13.3838 8.48168C12.4759 8.48168 11.751 9.27012 11.0714 9.87225C10.691 10.2094 10.1898 10.4142 9.64062 10.4142C9.09145 10.4142 8.59027 10.2094 8.20978 9.87222C7.53028 9.2701 6.80538 8.48168 5.89749 8.48168C4.98959 8.48168 4.26469 9.27011 3.58518 9.87224C3.20469 10.2094 2.70351 10.4142 2.15433 10.4142C0.964527 10.4142 0 9.45287 0 8.26698C0 7.0811 0.964527 6.11974 2.15433 6.11974C2.70349 6.11974 3.20466 6.32454 3.58514 6.66169C4.26466 7.26381 4.98957 8.05223 5.89747 8.05223C6.80538 8.05223 7.53029 7.26379 8.20981 6.66167C8.5903 6.32452 9.09146 6.11972 9.64062 6.11972C10.1898 6.11972 10.6909 6.32451 11.0714 6.66166C11.751 7.26378 12.4759 8.05223 13.3838 8.05223C14.2917 8.05223 15.0166 7.26378 15.6962 6.66166C16.0767 6.32451 16.5778 6.11972 17.127 6.11972C17.6762 6.11972 18.1775 6.32459 18.558 6.66183C19.2373 7.26394 19.9621 8.05223 20.8699 8.05223C21.7777 8.05223 22.5025 7.26394 23.1818 6.66183C23.5623 6.32459 24.0636 6.11972 24.6128 6.11972C25.1619 6.11972 25.663 6.32446 26.0435 6.66153Z" fill="#FF3E2D"/>
<path fill-rule="evenodd" clip-rule="evenodd" d="M31.1287 2.41564C31.1287 3.74977 30.0436 4.83129 28.7051 4.83129C27.9571 4.83129 27.2882 4.49353 26.8436 3.96267C26.3113 3.32707 25.6552 2.63042 24.8261 2.63042C23.9971 2.63042 23.3409 3.32707 22.8086 3.96267C22.364 4.49353 21.6952 4.83129 20.9471 4.83129C20.1992 4.83129 19.5304 4.4936 19.0858 3.96284C18.5534 3.32718 17.8971 2.63042 17.0679 2.63042C16.2387 2.63042 15.5825 3.32718 15.0501 3.96284C14.6055 4.4936 13.9367 4.83129 13.1887 4.83129C12.2028 4.83129 11.3544 4.24451 10.9758 3.40221C10.7899 2.98858 10.4268 2.63042 9.97332 2.63042C9.51981 2.63042 9.15673 2.98861 8.97083 3.40226C8.59228 4.24461 7.74382 4.83143 6.75785 4.83143C5.41932 4.83143 4.33423 3.74991 4.33423 2.41578C4.33423 1.08166 5.41932 0.000139263 6.75785 0.000139263C7.74378 0.000139263 8.5922 0.586907 8.97078 1.42919C9.15669 1.84282 9.51977 2.20098 9.97326 2.20098C10.4268 2.20098 10.7899 1.84279 10.9758 1.42914C11.3543 0.586807 12.2028 0 13.1887 0C13.9367 0 14.6056 0.337732 15.0501 0.868545C15.5825 1.50421 16.2388 2.20098 17.0679 2.20098C17.8971 2.20098 18.5533 1.50421 19.0857 0.868545C19.5303 0.337732 20.1991 0 20.9471 0C21.6952 0 22.3641 0.337801 22.8087 0.868709C23.341 1.50433 23.9971 2.20098 24.8261 2.20098C25.6552 2.20098 26.3113 1.50433 26.8436 0.868709C27.2881 0.337801 27.957 0 28.7051 0C30.0436 0 31.1287 1.08152 31.1287 2.41564Z" fill="#FF3E2D"/>
</svg>
