<svg width="182" height="36" viewBox="0 0 182 36" fill="none" xmlns="http://www.w3.org/2000/svg">
<path d="M22.2929 8.62131C13.1477 6.42669 6.75662 11.6419 2.82548 5.77775C2.81371 5.75413 2.80194 5.74233 2.79017 5.71874C2.68425 5.55356 2.82548 5.31758 3.01379 5.36476C11.1115 7.29983 12.4297 6.09631 15.8312 6.50927C18.9737 6.88684 22.2929 8.62131 22.2929 8.62131Z" fill="white"/>
<path d="M23.9047 10.0966C15.8544 8.90488 10.1463 14.9342 5.8387 10.2972C5.82693 10.2854 5.81516 10.2618 5.79162 10.25C5.67394 10.1202 5.75632 9.88421 5.93285 9.896C13.2887 10.4387 15.0187 9.14086 18.0436 9.01107C20.868 8.89308 23.9047 10.0966 23.9047 10.0966Z" fill="white"/>
<path d="M25.3994 11.9959C18.3731 11.0402 15.3603 17.3644 9.66392 13.4944C9.65215 13.4826 9.64038 13.4708 9.61684 13.4472C9.49916 13.341 9.53447 13.0342 9.69922 13.0342C15.9252 13.046 17.5493 11.5947 20.174 11.2762C23.7284 10.8514 25.3994 11.9959 25.3994 11.9959Z" fill="white"/>
<path d="M28.5659 14.0847C24.8939 14.474 25.4708 17.4238 21.4457 16.7631C20.9161 16.6805 21.0338 16.3029 21.2692 16.2321C24.647 15.2646 24.647 14.6156 25.8592 14.1319C27.0126 13.6953 28.5659 14.0847 28.5659 14.0847Z" fill="white"/>
<path d="M26.9061 13.1755C21.61 13.2817 20.2566 17.0928 15.796 15.8539C15.1134 15.6651 15.3488 15.146 15.7136 15.0988C20.8216 14.2847 21.0685 13.5295 22.9634 13.0811C24.7406 12.6564 26.9061 13.1755 26.9061 13.1755Z" fill="white"/>
<path d="M23.8818 8.60982C23.8465 8.6688 23.7641 8.6806 23.7053 8.65701C22.6107 8.03165 21.5869 7.30011 20.4099 6.49778C19.3035 5.75444 16.9259 4.73972 11.9826 4.9757C9.62858 5.0937 6.05055 5.57746 2.3548 3.04067C1.46028 2.43891 0.553996 1.4124 0.0831996 0.456692C0.0361232 0.374088 0.0125853 0.267891 0.000816223 0.161694C-0.0109529 0.0554974 0.106737 -0.0270748 0.212691 0.00831338C9.35789 3.68961 11.9708 2.25014 17.7263 3.58342C20.0919 4.13799 23.0226 7.58331 23.8703 8.44461C23.9172 8.48003 23.9172 8.55081 23.8818 8.60982Z" fill="white"/>
<path d="M31.8384 28.7859C31.7322 29.116 31.7557 29.5056 31.5441 29.7888C31.285 30.1664 30.6496 30.2018 30.3435 29.8595C30.1435 29.6827 30.1435 29.3995 30.0728 29.1752C29.6139 27.1576 29.1666 25.1398 28.7194 23.1103C28.6724 22.9689 28.7194 22.8744 28.8605 22.8156C29.0843 22.7565 29.1078 23.0043 29.1782 23.146C29.6843 24.5265 30.1551 25.9186 30.6731 27.2991C30.8377 27.7712 31.3911 27.6176 31.7557 27.7359C32.1441 27.9834 31.9088 28.4436 31.8384 28.7859Z" fill="white"/>
<path d="M32.4384 23.2165C32.4856 23.3464 32.4149 23.4997 32.2737 23.5232C32.1914 23.535 32.1207 23.5232 32.0972 23.4052C31.7557 22.7209 31.4615 22.0012 31.1085 21.3169C30.6496 20.9274 30.167 20.5263 29.8847 19.9717C29.3786 19.075 29.4255 17.9069 29.9905 17.0456C30.0374 16.9866 30.0728 16.9158 30.12 16.8568C30.2024 16.7388 30.3789 16.7624 30.4258 16.904C30.4612 17.0102 30.4847 17.1164 30.5319 17.2108C31.1673 19.2048 31.7795 21.2224 32.4384 23.2165Z" fill="white"/>
<path d="M32.5327 13.7187C32.5092 14.2496 32.3092 14.7452 32.1796 15.2525C32.1677 15.2879 32.1561 15.3115 32.1208 15.3233C32.0384 15.3587 31.9561 15.2997 31.9561 15.2171C31.9677 14.521 32.215 13.8367 32.0384 13.1523C31.7796 12.2202 31.1439 11.4061 31.097 10.4149C31.0732 9.89577 31.2028 9.38842 31.3089 8.88106C30.932 8.09053 30.7555 7.18198 30.9555 6.32067C30.9909 6.21448 31.0028 6.21447 31.0616 6.29705C31.4265 6.82803 31.9089 7.35898 31.9089 8.05511C31.8619 9.04623 31.3204 10.0374 31.6854 11.0285C31.9796 11.9134 32.615 12.7393 32.5327 13.7187Z" fill="white"/>
<path d="M35.6399 10.297C35.6164 11.5949 34.4865 12.6332 34.6161 13.9547C34.6161 14.4621 34.7453 14.9813 34.6865 15.4886C34.6042 15.937 34.0981 16.0078 33.7334 16.114C33.5215 16.2084 33.2862 15.9606 33.345 15.7482C33.345 14.2143 33.345 12.6687 33.345 11.1348C33.3685 10.4976 33.5215 9.82506 33.9569 9.34133C34.2277 9.02274 34.51 8.70418 34.8042 8.38559C34.863 8.31478 34.8984 8.23221 34.8868 8.14961C34.863 7.86644 34.8042 7.61865 34.9338 7.28827C35.1338 6.87531 35.3929 6.62753 35.6633 6.35616C35.7106 6.30897 35.781 6.33256 35.7929 6.39154C35.9814 7.22929 35.7929 8.13781 35.4045 8.89295C35.4987 9.34133 35.6399 9.81327 35.6399 10.297Z" fill="white"/>
<path d="M50.5054 5.55358C48.9047 6.00192 48.1631 6.54467 47.5277 7.05203C47.5277 7.05203 48.9754 6.54467 51.0585 6.32051C56.9671 5.67157 57.3083 7.87798 63.9231 5.31759C64.1466 5.2822 64.2054 5.45917 64.1466 5.55358C63.2639 7.08745 62.287 8.7865 58.5913 8.93988C54.566 9.10509 52.4711 7.48861 48.6927 7.97238C46.2801 8.27914 45.0324 9.03428 44.3379 9.49445C52.5769 7.91336 51.8942 11.5475 59.9682 9.61244C60.0625 9.58882 60.1686 9.56523 60.2628 9.57702C60.4744 9.60062 60.557 9.86023 60.4274 10.0018C60.3686 10.0726 60.2863 10.1434 60.2274 10.2142C59.1682 11.3587 58.0498 12.6094 54.2834 12.3262C49.8581 11.9958 49.5757 9.24667 41.1248 11.3469C49.3166 11.3115 49.1754 14.0017 55.3429 13.1993C55.5548 13.1758 55.6841 13.4353 55.5195 13.5769C55.4252 13.6595 55.3191 13.7303 55.2368 13.8011C54.3072 14.5326 52.9534 15.4293 50.4112 14.9102C45.1147 13.8011 45.7858 11.6065 38.971 12.81C44.279 12.9516 43.9144 15.0164 49.3638 15.5237C49.3638 15.5237 49.3638 15.5237 49.3754 15.5237C49.6696 15.5591 49.7523 15.9485 49.505 16.1137C49.3166 16.2435 49.1047 16.3379 48.9046 16.4205C44.9266 17.9661 43.0786 12.9634 38.1941 14.0843C41.6898 14.391 41.4072 15.5709 44.5617 16.4323C44.9028 16.5267 44.8678 16.9868 44.4909 17.0222C40.7483 17.3998 41.0779 14.8748 38.7826 14.7804C38.1707 14.7568 37.6057 15.0872 37.2995 15.6299C36.3934 17.211 36.758 18.7095 36.6992 19.5236C36.9111 20.3731 37.2291 21.1992 37.2407 22.0957C37.2526 22.7211 37.1938 23.3701 36.9934 23.9718C36.6169 25.2224 36.2403 26.4734 35.8519 27.7359C35.7696 27.9953 35.7811 28.2785 35.8754 28.5263C36.0165 28.9039 36.158 29.2697 36.2169 29.6708C36.358 30.3433 36.2638 31.0394 36.0284 31.6884C35.5342 32.9037 35.0396 34.119 34.5454 35.3461C34.4512 35.5702 34.3807 35.8064 34.2158 35.9951C33.9688 36.0423 33.9923 35.7238 34.0158 35.5702C34.4984 31.0275 34.9573 26.4849 35.4281 21.9423L35.8049 20.8569C35.0634 21.494 34.7338 22.3788 34.2512 23.1695C34.1923 23.3582 33.91 23.3935 33.8511 23.1814C33.8981 22.3907 34.0039 21.6003 34.0277 20.8097C34.0981 20.0074 34.0865 19.1932 34.3573 18.4263C34.6631 17.6476 35.2515 17.0222 35.7107 16.3497C36.4638 15.3822 37.0288 14.2848 37.4172 13.1285C37.6526 12.4206 38.1472 11.7953 38.7826 11.4059C40.9837 10.0136 42.2664 8.81009 44.3498 7.22903C46.2682 5.77773 47.7512 4.64502 48.5988 4.30287C52.4711 2.70999 60.2509 4.42086 66.9127 0.0788244C67.0773 -0.0155762 67.2892 0.173193 67.1599 0.444567C66.5361 2.02566 65.7946 3.04037 64.0289 3.91351C58.9444 6.42671 53.1065 4.82203 50.5054 5.55358Z" fill="white"/>
<path d="M35.0633 8.2797C35.0633 8.2797 34.6276 7.51247 33.5685 7.41803C32.7681 7.34723 32.4035 7.61871 32.4035 7.61871C32.4035 7.61871 33.3685 7.33543 34.1218 8.00822C34.8749 8.68102 34.463 9.25942 34.463 9.25942C34.463 9.25942 35.2868 8.77546 35.0633 8.2797Z" fill="white"/>
<path d="M35.0161 8.17328C35.0161 8.17328 34.463 7.58335 33.3331 7.53613C33.3331 7.53613 34.0039 7.70131 34.0865 8.06708C34.2277 8.76324 33.6158 9.69536 33.4981 10.1437C33.4039 10.5449 35.0161 8.17328 35.0161 8.17328Z" fill="white"/>
<path d="M134.424 23.821C132.892 24.0746 131.341 24.1923 129.789 24.1727C126.878 24.1727 123.756 22.2496 123.756 16.8801V13.7376C123.756 8.04418 127.029 6.4249 129.995 6.4249C131.478 6.41163 132.959 6.5213 134.424 6.75275C134.63 6.77676 134.821 6.86872 134.821 7.10461V8.27605C134.821 8.43997 134.729 8.51197 134.519 8.51197H134.428C133.053 8.396 131.981 8.34801 129.999 8.34801C127.835 8.34801 125.877 9.51949 125.877 13.7376V16.8801C125.877 20.7505 127.625 22.2737 129.793 22.2737C131.211 22.2737 132.176 22.1818 132.724 22.1336V15.4288C132.719 15.3696 132.726 15.31 132.745 15.2537C132.764 15.1975 132.794 15.1456 132.833 15.1015C132.873 15.0573 132.92 15.0217 132.974 14.9968C133.028 14.972 133.086 14.9584 133.145 14.957H134.404C134.523 14.9632 134.636 15.0157 134.718 15.1037C134.801 15.1916 134.846 15.3081 134.845 15.4288V23.3051C134.848 23.4279 134.807 23.5478 134.73 23.6426C134.653 23.7375 134.544 23.8008 134.424 23.821Z" fill="white" fill-opacity="0.4"/>
<path d="M143.527 12.754C142.442 12.7107 141.357 12.7898 140.29 12.9899V23.541C140.296 23.6555 140.258 23.7676 140.184 23.8544C140.11 23.9415 140.006 23.9968 139.893 24.0087H138.682C138.564 24.0026 138.454 23.9499 138.375 23.8625C138.296 23.7747 138.255 23.6593 138.261 23.541V12.1462C138.267 12.0285 138.31 11.9156 138.381 11.8222C138.453 11.7288 138.55 11.6592 138.662 11.6225C139.988 11.0348 141.597 10.9668 143.527 10.9668C143.832 10.9668 144.019 10.9908 144.019 11.3186V12.3942C144.019 12.638 143.972 12.754 143.527 12.754Z" fill="white" fill-opacity="0.4"/>
<path d="M151.255 24.173C147.832 24.173 146.093 21.8983 146.093 18.4518V16.6686C146.093 13.2222 147.84 10.9512 151.255 10.9512C154.671 10.9512 156.418 13.2222 156.418 16.6686V18.4518C156.418 21.8983 154.659 24.173 151.255 24.173ZM154.401 16.6686C154.401 14.2697 153.444 12.7544 151.255 12.7544C149.067 12.7544 148.134 14.2577 148.134 16.6686V18.4518C148.134 20.8505 149.067 22.3698 151.255 22.3698C153.444 22.3698 154.401 20.8666 154.401 18.4518V16.6686Z" fill="white" fill-opacity="0.4"/>
<path d="M164.187 24.1727H163.965C162.376 24.1727 159.167 23.281 159.167 18.6633V11.5825C159.162 11.5229 159.17 11.4628 159.189 11.4062C159.208 11.3496 159.239 11.2977 159.28 11.2537C159.32 11.2097 159.369 11.1746 159.423 11.1507C159.478 11.1268 159.537 11.1146 159.596 11.1147H160.807C160.866 11.1156 160.924 11.1287 160.978 11.1531C161.031 11.1775 161.079 11.2127 161.119 11.2566C161.158 11.3005 161.188 11.3521 161.207 11.4081C161.226 11.4642 161.233 11.5236 161.228 11.5825V18.6633C161.228 21.4621 162.42 22.3695 163.977 22.3695H164.187C165.744 22.3695 166.935 21.4779 166.935 18.6633V11.5825C166.93 11.5239 166.937 11.4648 166.956 11.409C166.975 11.3532 167.004 11.3018 167.044 11.258C167.082 11.2142 167.13 11.1789 167.183 11.1543C167.236 11.1296 167.294 11.1162 167.352 11.1147H168.563C168.622 11.1156 168.68 11.1287 168.734 11.1531C168.787 11.1775 168.835 11.2127 168.875 11.2566C168.914 11.3005 168.944 11.3521 168.963 11.4081C168.982 11.4642 168.989 11.5236 168.984 11.5825V18.6633C168.984 23.281 165.768 24.1727 164.187 24.1727Z" fill="white" fill-opacity="0.4"/>
<path d="M176.924 24.1726C176.01 24.1604 175.1 24.0749 174.2 23.9167V28.1588C174.2 28.2173 174.188 28.2749 174.166 28.3289C174.144 28.3825 174.111 28.4314 174.071 28.4728C174.029 28.514 173.981 28.5468 173.927 28.569C173.874 28.5911 173.817 28.6027 173.759 28.6027H172.567C172.51 28.6021 172.454 28.5902 172.402 28.5677C172.35 28.5448 172.303 28.5117 172.264 28.4703C172.224 28.4291 172.194 28.38 172.174 28.3266C172.154 28.2732 172.144 28.216 172.146 28.1588V12.0223C172.146 11.7184 172.218 11.5785 172.635 11.4865C174.038 11.1439 175.476 10.9629 176.92 10.9468C180.391 10.9468 182 13.2177 182 16.7361V18.4194C182.003 22.1097 180.323 24.1726 176.924 24.1726ZM179.95 16.7401C179.95 14.2772 179.231 12.686 176.924 12.686C176.011 12.6913 175.1 12.7688 174.2 12.9179V22.2017C175.1 22.3505 176.011 22.4295 176.924 22.4376C179.208 22.4376 179.95 20.9382 179.95 18.4394V16.7401Z" fill="white" fill-opacity="0.4"/>
<path d="M93.8855 23.9811C92.8369 24.145 89.9138 24.353 88.9012 24.353C84.4057 24.353 81.3556 23.2174 81.3556 17.5321V7.16888C81.3565 7.10884 81.3694 7.04964 81.3935 6.99467C81.4176 6.93974 81.452 6.89015 81.4954 6.84885C81.5385 6.80751 81.5896 6.77527 81.6453 6.75403C81.7012 6.73278 81.7607 6.72295 81.8202 6.72507H85.617C85.6765 6.7224 85.7363 6.73185 85.7922 6.7529C85.8482 6.77396 85.8996 6.80613 85.943 6.84756C85.9861 6.88899 86.0208 6.93881 86.0446 6.994C86.0684 7.04922 86.081 7.10868 86.0816 7.16888V17.5321C86.0816 19.6432 86.7806 20.3309 88.4366 20.3309C89.1842 20.3285 89.9308 20.2804 90.6726 20.1869V7.16888C90.6729 7.10868 90.6855 7.04922 90.7093 6.994C90.7331 6.93881 90.7678 6.88899 90.8112 6.84756C90.8546 6.80613 90.9057 6.77396 90.9617 6.7529C91.0176 6.73185 91.0774 6.7224 91.1372 6.72507H94.9099C95.0331 6.7196 95.153 6.76312 95.2446 6.84615C95.336 6.9292 95.3913 7.04514 95.3983 7.16888V22.1741C95.3983 23.4855 95.0012 23.8172 93.8855 23.9811Z" fill="white"/>
<path d="M102.711 24.145H98.8902C98.768 24.1421 98.6519 24.091 98.5664 24.0026C98.4812 23.9145 98.4333 23.7962 98.4333 23.6734V7.16884C98.4346 7.10951 98.4471 7.05098 98.4706 6.99656C98.4941 6.94215 98.5281 6.89291 98.5706 6.8517C98.613 6.81049 98.6629 6.77809 98.7178 6.75637C98.7725 6.73464 98.8314 6.724 98.8902 6.72506H102.711C102.77 6.72236 102.83 6.73181 102.886 6.75286C102.942 6.77392 102.993 6.80612 103.036 6.84755C103.08 6.88895 103.115 6.93877 103.138 6.99399C103.162 7.04918 103.175 7.10867 103.175 7.16884V23.6734C103.176 23.7352 103.164 23.7962 103.141 23.8534C103.118 23.9107 103.084 23.9627 103.041 24.0068C102.997 24.0505 102.946 24.0852 102.889 24.109C102.833 24.1328 102.772 24.145 102.711 24.145Z" fill="white"/>
<path d="M116.218 23.9328C115.158 24.2369 114.059 24.3786 112.957 24.3526C108.672 24.3526 105.785 22.0098 105.785 16.6402V14.2413C105.785 8.85574 108.672 6.51283 112.957 6.51283C114.059 6.48901 115.157 6.6305 116.218 6.93263C116.591 7.05259 116.73 7.12054 116.73 7.44841V10.451C116.73 10.7549 116.591 10.8948 116.333 10.8948H116.261C115.179 10.7675 114.091 10.6981 113.001 10.6869C111.742 10.6869 110.618 11.2467 110.618 14.2253V16.6242C110.618 19.5788 111.738 20.1666 113.001 20.1666C114.091 20.1543 115.179 20.0836 116.261 19.9547H116.305C116.583 19.9547 116.702 20.0946 116.702 20.3985V23.417C116.73 23.721 116.591 23.8168 116.218 23.9328Z" fill="white"/>
</svg>
